<svg width="24" height="24" viewBox="0 0 24 24" fill="none" xmlns="http://www.w3.org/2000/svg">
<path d="M10.7809 6.3753C10.4359 5.94404 9.80657 5.87412 9.3753 6.21913C8.94404 6.56414 8.87412 7.19343 9.21913 7.6247L10.7809 6.3753ZM14 12L14.7809 12.6247L15.2806 12L14.7809 11.3753L14 12ZM9.21913 16.3753C8.87412 16.8066 8.94404 17.4359 9.3753 17.7809C9.80657 18.1259 10.4359 18.056 10.7809 17.6247L9.21913 16.3753ZM9.21913 7.6247L13.2191 12.6247L14.7809 11.3753L10.7809 6.3753L9.21913 7.6247ZM13.2191 11.3753L9.21913 16.3753L10.7809 17.6247L14.7809 12.6247L13.2191 11.3753Z" fill="#AFB2B6"/>
</svg>
