<svg width="405" height="360" viewBox="0 0 405 360" fill="none" xmlns="http://www.w3.org/2000/svg">
<rect x="0.00585938" y="58.8425" width="227.35" height="305.128" rx="20" transform="rotate(-15 0.00585938 58.8425)" fill="#242426"/>
<rect width="227.35" height="305.128" rx="20" transform="matrix(0.965926 0.258819 0.258819 -0.965926 106.424 294.73)" fill="#242426"/>
<rect x="70" y="2.6145" width="266" height="357" rx="20" fill="#323537"/>
<path d="M208.307 228.811C207.953 228.808 207.614 228.668 207.362 228.42C207.24 228.295 207.143 228.147 207.077 227.985C207.006 227.826 206.969 227.654 206.97 227.479C206.968 227.302 207.005 227.127 207.077 226.965C207.106 226.882 207.148 226.804 207.202 226.734C207.245 226.662 207.299 226.596 207.362 226.539C207.892 226.038 208.722 226.038 209.252 226.539C209.773 227.059 209.773 227.9 209.252 228.42C209.001 228.67 208.661 228.81 208.307 228.811Z" fill="#565B5F"/>
<path fill-rule="evenodd" clip-rule="evenodd" d="M162.536 227.479C162.536 226.744 163.135 226.148 163.873 226.148C164.612 226.148 165.21 226.744 165.21 227.479C165.21 228.215 164.612 228.811 163.873 228.811C163.515 228.815 163.169 228.677 162.913 228.428C162.657 228.178 162.512 227.836 162.51 227.479H162.536ZM171.289 226.148C170.551 226.148 169.952 226.744 169.952 227.479H169.926C169.926 227.837 170.07 228.18 170.327 228.43C170.583 228.681 170.93 228.818 171.289 228.811C172.028 228.811 172.626 228.215 172.626 227.479C172.626 226.744 172.028 226.148 171.289 226.148ZM177.359 227.479C177.359 226.744 177.958 226.148 178.696 226.148C179.435 226.148 180.033 226.744 180.033 227.479C180.033 228.215 179.435 228.811 178.696 228.811C178.333 228.825 177.979 228.691 177.716 228.44C177.454 228.189 177.306 227.842 177.306 227.479H177.359ZM186.104 226.148C185.365 226.148 184.767 226.744 184.767 227.479H184.74C184.74 227.837 184.884 228.18 185.141 228.43C185.397 228.681 185.744 228.818 186.104 228.811C186.842 228.811 187.441 228.215 187.441 227.479C187.441 226.744 186.842 226.148 186.104 226.148ZM192.182 227.479C192.182 226.744 192.781 226.148 193.52 226.148C194.258 226.148 194.857 226.744 194.857 227.479C194.852 228.213 194.256 228.806 193.52 228.811C193.16 228.818 192.813 228.681 192.557 228.43C192.3 228.18 192.156 227.837 192.156 227.479H192.182ZM199.59 227.479C199.59 226.744 200.188 226.148 200.927 226.148C201.665 226.148 202.264 226.744 202.264 227.479C202.264 228.215 201.665 228.811 200.927 228.811C200.188 228.811 199.59 228.215 199.59 227.479ZM156.466 226.148C155.728 226.148 155.129 226.744 155.129 227.479H155.103C155.102 227.837 155.247 228.18 155.504 228.43C155.76 228.681 156.107 228.818 156.466 228.811C157.205 228.811 157.803 228.215 157.803 227.479C157.803 226.744 157.205 226.148 156.466 226.148Z" fill="#565B5F"/>
<path d="M149.032 228.811C148.678 228.81 148.338 228.67 148.088 228.42C147.834 228.172 147.693 227.833 147.695 227.479C147.696 227.127 147.837 226.788 148.088 226.539C148.148 226.473 148.217 226.416 148.293 226.37C148.364 226.318 148.442 226.277 148.524 226.246C148.604 226.21 148.688 226.183 148.774 226.166C148.945 226.139 149.12 226.139 149.291 226.166C149.377 226.183 149.461 226.21 149.54 226.246C149.622 226.278 149.7 226.32 149.772 226.37C149.846 226.419 149.915 226.475 149.977 226.539C150.228 226.788 150.369 227.127 150.369 227.479C150.367 227.832 150.226 228.17 149.977 228.42C149.727 228.67 149.387 228.81 149.032 228.811Z" fill="#565B5F"/>
<path fill-rule="evenodd" clip-rule="evenodd" d="M149.032 176.924C148.294 176.924 147.695 177.52 147.695 178.255C147.695 178.99 148.294 179.586 149.032 179.586C149.771 179.586 150.369 178.99 150.369 178.255C150.369 177.52 149.771 176.924 149.032 176.924ZM147.695 185.283C147.695 184.548 148.294 183.952 149.032 183.952C149.771 183.952 150.369 184.548 150.369 185.283C150.369 186.018 149.771 186.614 149.032 186.614C148.294 186.614 147.695 186.018 147.695 185.283ZM149.032 190.989C148.294 190.989 147.695 191.585 147.695 192.32C147.695 193.056 148.294 193.652 149.032 193.652C149.771 193.652 150.369 193.056 150.369 192.32C150.369 191.585 149.771 190.989 149.032 190.989ZM147.695 199.349C147.695 198.614 148.294 198.018 149.032 198.018C149.771 198.018 150.369 198.614 150.369 199.349C150.369 200.084 149.771 200.68 149.032 200.68C148.294 200.68 147.695 200.084 147.695 199.349ZM149.032 205.055C148.294 205.055 147.695 205.651 147.695 206.386V206.404C147.695 207.139 148.294 207.735 149.032 207.735C149.771 207.735 150.369 207.139 150.369 206.404C150.374 206.047 150.235 205.704 149.984 205.451C149.733 205.197 149.39 205.055 149.032 205.055ZM147.695 213.414C147.695 212.679 148.294 212.083 149.032 212.083C149.771 212.083 150.369 212.679 150.369 213.414C150.369 214.149 149.771 214.745 149.032 214.745C148.294 214.745 147.695 214.149 147.695 213.414ZM147.695 220.442C147.695 219.707 148.294 219.111 149.032 219.111C149.771 219.111 150.369 219.707 150.369 220.442C150.369 221.177 149.771 221.773 149.032 221.773C148.294 221.773 147.695 221.177 147.695 220.442Z" fill="#565B5F"/>
<path d="M149.032 172.558C148.678 172.558 148.338 172.417 148.088 172.167C147.838 171.917 147.698 171.579 147.695 171.227C147.696 170.874 147.837 170.536 148.088 170.286C148.148 170.221 148.217 170.164 148.293 170.118C148.367 170.078 148.444 170.046 148.524 170.02L148.783 169.922C148.953 169.887 149.129 169.887 149.3 169.922L149.549 169.993L149.781 170.118C149.855 170.166 149.924 170.223 149.986 170.286C150.237 170.536 150.378 170.874 150.378 171.227C150.378 171.962 149.78 172.558 149.041 172.558H149.032Z" fill="#565B5F"/>
<path fill-rule="evenodd" clip-rule="evenodd" d="M156.466 169.896C155.728 169.896 155.129 170.492 155.129 171.227H155.103C155.102 171.584 155.247 171.927 155.504 172.178C155.76 172.428 156.107 172.565 156.466 172.558C157.205 172.558 157.803 171.962 157.803 171.227C157.803 170.492 157.205 169.896 156.466 169.896ZM162.536 171.227C162.536 170.492 163.135 169.896 163.873 169.896C164.612 169.896 165.21 170.492 165.21 171.227C165.21 171.962 164.612 172.558 163.873 172.558C163.514 172.565 163.167 172.428 162.911 172.178C162.654 171.927 162.51 171.584 162.51 171.227H162.536ZM171.289 169.896C170.551 169.896 169.952 170.492 169.952 171.227H169.926C169.926 171.584 170.07 171.927 170.327 172.178C170.583 172.428 170.93 172.565 171.289 172.558C172.028 172.558 172.626 171.962 172.626 171.227C172.626 170.492 172.028 169.896 171.289 169.896ZM177.359 171.227C177.359 170.492 177.958 169.896 178.696 169.896C179.435 169.896 180.033 170.492 180.033 171.227C180.033 171.962 179.435 172.558 178.696 172.558C178.333 172.572 177.979 172.439 177.716 172.187C177.454 171.936 177.306 171.589 177.306 171.227H177.359ZM186.104 169.896C185.365 169.896 184.767 170.492 184.767 171.227H184.74C184.74 171.584 184.884 171.927 185.141 172.178C185.397 172.428 185.744 172.565 186.104 172.558C186.842 172.558 187.441 171.962 187.441 171.227C187.441 170.492 186.842 169.896 186.104 169.896ZM192.182 171.227C192.182 170.492 192.781 169.896 193.52 169.896C194.258 169.896 194.857 170.492 194.857 171.227C194.857 171.962 194.258 172.558 193.52 172.558C193.16 172.565 192.813 172.428 192.557 172.178C192.3 171.927 192.156 171.584 192.156 171.227H192.182ZM199.59 171.227C199.59 170.492 200.188 169.896 200.927 169.896C201.665 169.896 202.264 170.492 202.264 171.227C202.264 171.962 201.665 172.558 200.927 172.558C200.188 172.558 199.59 171.962 199.59 171.227Z" fill="#565B5F"/>
<path d="M208.306 172.558C207.858 172.561 207.437 172.339 207.189 171.967C206.941 171.594 206.899 171.122 207.076 170.712C207.107 170.63 207.149 170.552 207.201 170.481C207.247 170.41 207.301 170.345 207.362 170.286C207.68 169.973 208.134 169.837 208.574 169.922L208.823 169.993C208.901 170.029 208.975 170.071 209.046 170.117C209.122 170.164 209.191 170.221 209.251 170.286C209.315 170.345 209.372 170.41 209.421 170.481C209.421 170.561 209.51 170.632 209.545 170.712C209.577 170.792 209.601 170.876 209.617 170.961C209.706 171.398 209.569 171.852 209.251 172.167C209.191 172.23 209.122 172.284 209.046 172.327C208.977 172.377 208.902 172.419 208.823 172.451C208.661 172.523 208.484 172.559 208.306 172.558Z" fill="#565B5F"/>
<path fill-rule="evenodd" clip-rule="evenodd" d="M208.307 176.924C207.568 176.924 206.97 177.52 206.97 178.255C206.97 178.99 207.568 179.586 208.307 179.586C209.045 179.586 209.644 178.99 209.644 178.255C209.644 177.52 209.045 176.924 208.307 176.924ZM206.97 185.283C206.97 184.548 207.568 183.952 208.307 183.952C209.045 183.952 209.644 184.548 209.644 185.283C209.644 186.018 209.045 186.614 208.307 186.614C207.568 186.614 206.97 186.018 206.97 185.283ZM208.307 190.989C207.568 190.989 206.97 191.585 206.97 192.32C206.97 193.056 207.568 193.652 208.307 193.652C209.045 193.652 209.644 193.056 209.644 192.32C209.644 191.585 209.045 190.989 208.307 190.989ZM206.97 199.349C206.97 198.614 207.568 198.018 208.307 198.018C209.045 198.018 209.644 198.614 209.644 199.349C209.644 200.084 209.045 200.68 208.307 200.68C207.568 200.68 206.97 200.084 206.97 199.349ZM208.307 205.046C207.567 205.051 206.97 205.649 206.97 206.386V206.404C206.975 207.135 207.572 207.726 208.307 207.726C209.042 207.726 209.639 207.135 209.644 206.404C209.649 206.047 209.51 205.703 209.259 205.448C209.008 205.193 208.665 205.048 208.307 205.046ZM206.97 213.414C206.97 212.679 207.568 212.083 208.307 212.083C209.045 212.083 209.644 212.679 209.644 213.414C209.644 214.149 209.045 214.745 208.307 214.745C207.568 214.745 206.97 214.149 206.97 213.414ZM206.97 220.442C206.97 219.707 207.568 219.111 208.307 219.111C209.045 219.111 209.644 219.707 209.644 220.442C209.644 221.177 209.045 221.773 208.307 221.773C207.568 221.773 206.97 221.177 206.97 220.442Z" fill="#565B5F"/>
<path d="M162.724 136.281H244.068V213.973H162.724V136.281Z" fill="#323537"/>
<g opacity="0.5">
<path d="M170.086 143.309H236.714V206.945H170.086V143.309Z" fill="#565B5F"/>
</g>
<path d="M162.272 135.796H245V214.705H162.272V135.796Z" stroke="#565B5F"/>
<rect x="177.903" y="155.031" width="20.3636" height="20.3636" rx="10.1818" fill="#565B5F"/>
<rect x="187.771" y="165.911" width="25.7866" height="28.4147" fill="#323537"/>
<path fill-rule="evenodd" clip-rule="evenodd" d="M211.67 194.563C212.4 194.568 213.129 194.574 213.851 194.574C213.851 193.368 213.851 192.205 213.753 190.945L213.708 189.117L213.753 187.342C213.798 186.64 213.783 185.892 213.767 185.137C213.758 184.689 213.749 184.238 213.753 183.792C213.757 183.223 213.779 182.662 213.802 182.102C213.826 181.484 213.851 180.867 213.851 180.243L213.878 178.29L213.94 176.516C213.878 175.335 213.878 174.111 213.94 172.966C214.002 171.821 214.02 170.579 213.94 169.416C213.898 168.812 213.917 168.201 213.935 167.585C213.953 167.016 213.97 166.442 213.94 165.867C213.93 165.664 213.76 165.507 213.557 165.512C213.299 165.52 213.041 165.529 212.783 165.538C210.893 165.603 209.003 165.669 207.112 165.583H205.499H203.886H200.659C199.841 165.59 199.022 165.617 198.202 165.644C196.869 165.689 195.536 165.733 194.206 165.689H187.761C187.67 165.694 187.596 165.767 187.592 165.858C187.592 166.251 187.595 166.644 187.598 167.038C187.604 167.825 187.61 168.614 187.592 169.408C187.583 169.807 187.571 170.205 187.559 170.602C187.535 171.389 187.512 172.173 187.512 172.957C187.565 173.543 187.565 174.137 187.565 174.732L187.485 176.507V180.056C187.485 180.847 187.477 181.637 187.469 182.426C187.453 184.005 187.437 185.582 187.485 187.156C187.556 187.943 187.532 188.734 187.509 189.524C187.497 189.918 187.485 190.312 187.485 190.705V194.255C187.485 194.431 187.628 194.574 187.806 194.574C188.628 194.574 189.454 194.599 190.281 194.623C191.632 194.663 192.987 194.703 194.33 194.637C195.4 194.574 196.487 194.557 197.593 194.637C198.33 194.69 199.052 194.672 199.771 194.654C200.129 194.645 200.487 194.637 200.846 194.637C201.185 194.627 201.523 194.616 201.86 194.605C203.668 194.549 205.458 194.492 207.344 194.574C208.747 194.539 210.209 194.551 211.67 194.563ZM213.343 190.528V194.077H213.307C212.805 194.073 212.308 194.075 211.811 194.077C210.2 194.082 208.604 194.088 206.934 193.891C205.556 193.968 204.127 193.942 202.694 193.917C201.976 193.904 201.257 193.891 200.543 193.891C200.186 193.891 199.829 193.884 199.472 193.877C198.761 193.863 198.053 193.85 197.352 193.891C196.3 193.953 195.24 193.953 194.17 193.953H187.996C187.998 193.683 187.998 193.412 187.998 193.141C187.998 192.302 187.997 191.461 188.073 190.625C188.129 190.008 188.104 189.39 188.08 188.771C188.057 188.207 188.035 187.642 188.073 187.076C188.137 185.659 188.144 184.24 188.15 182.819C188.154 181.872 188.159 180.924 188.18 179.977C188.18 179.58 188.192 179.183 188.204 178.788C188.228 177.999 188.251 177.213 188.18 176.427C188.166 176.243 188.149 176.058 188.132 175.874C188.093 175.465 188.055 175.056 188.055 174.652C188.072 174.058 188.12 173.466 188.198 172.877C188.245 171.98 188.179 171.078 188.114 170.179C188.093 169.895 188.072 169.611 188.055 169.328C188.012 168.606 188.041 167.881 188.071 167.157C188.085 166.815 188.099 166.473 188.105 166.132C190.139 166.177 192.172 166.17 194.206 166.035C195.512 165.949 196.822 166.01 198.131 166.072C198.974 166.111 199.817 166.151 200.659 166.151H203.877H205.49L207.103 166.089C208.535 165.994 209.968 166.026 211.4 166.057C211.992 166.07 212.584 166.083 213.176 166.087C213.154 166.76 213.165 167.419 213.177 168.085C213.184 168.48 213.191 168.878 213.191 169.283C213.191 169.688 213.182 170.087 213.173 170.484C213.155 171.268 213.138 172.043 213.191 172.833C213.255 174.015 213.255 175.2 213.191 176.383C213.199 176.631 213.211 176.881 213.224 177.133C213.24 177.473 213.257 177.815 213.263 178.157C213.267 178.466 213.238 178.761 213.209 179.055C213.182 179.326 213.156 179.598 213.156 179.879L213.28 183.429C213.28 183.845 213.271 184.247 213.262 184.643C213.244 185.419 213.227 186.173 213.28 186.978L213.343 188.753V190.528ZM213.176 166.087C213.3 166.088 213.424 166.089 213.548 166.089L213.191 165.734C213.185 165.852 213.18 165.97 213.176 166.087ZM188.105 166.132C188.108 166.014 188.109 165.896 188.109 165.778L187.761 166.124C187.876 166.127 187.991 166.13 188.105 166.132ZM187.996 193.953H187.761L187.993 194.175C187.994 194.101 187.995 194.027 187.996 193.953Z" fill="#323537"/>
<path d="M218.308 178.362L209.608 195.222L228.906 194.601L218.825 178.335C218.769 178.243 218.666 178.189 218.558 178.195C218.45 178.2 218.354 178.264 218.308 178.362Z" fill="#565B5F"/>
<path fill-rule="evenodd" clip-rule="evenodd" d="M218.486 177.838C218.266 177.866 218.075 178.003 217.978 178.202C217.765 178.629 217.548 179.057 217.33 179.484C216.83 180.468 216.328 181.454 215.875 182.444L214.743 184.547L213.7 186.668C213.411 187.222 213.14 187.782 212.87 188.339C212.448 189.209 212.03 190.073 211.552 190.901C211.401 191.18 211.239 191.455 211.078 191.731C210.839 192.137 210.6 192.545 210.393 192.968C210.045 193.678 209.644 194.361 209.243 195.045C209.23 195.103 209.23 195.164 209.243 195.222C209.238 195.323 209.274 195.422 209.343 195.497C209.411 195.572 209.507 195.617 209.609 195.622C210.555 195.668 211.502 195.611 212.447 195.554C213.112 195.514 213.777 195.474 214.44 195.471C215.283 195.466 216.126 195.437 216.97 195.408C217.732 195.381 218.496 195.355 219.262 195.346C220.265 195.335 221.264 195.263 222.262 195.19C222.87 195.146 223.477 195.102 224.084 195.071C224.351 195.071 224.619 195.079 224.888 195.087C225.425 195.103 225.965 195.119 226.5 195.071L228.915 194.956C228.976 194.956 229.035 194.937 229.085 194.903C229.165 194.855 229.222 194.777 229.242 194.686C229.262 194.595 229.244 194.5 229.191 194.424L227.854 192.338C227.433 191.658 227.014 190.948 226.598 190.208L224.048 185.967C223.656 185.265 223.228 184.556 222.765 183.855C222.641 183.667 222.518 183.483 222.395 183.3C222.057 182.795 221.724 182.299 221.41 181.778L220.091 179.684L219.431 178.637C219.422 178.621 219.414 178.607 219.405 178.592C219.304 178.421 219.231 178.298 219.075 178.077C218.936 177.898 218.712 177.807 218.486 177.838ZM218.565 178.592C218.578 178.569 218.59 178.545 218.602 178.521C218.611 178.521 218.513 178.512 218.513 178.512L218.565 178.592ZM228.355 194.331L225.956 190.581C225.54 189.926 225.149 189.264 224.759 188.603C224.313 187.848 223.869 187.095 223.389 186.357C223.243 186.123 223.096 185.891 222.948 185.658C222.653 185.193 222.358 184.727 222.079 184.254C221.949 184.035 221.823 183.814 221.696 183.593C221.412 183.098 221.127 182.603 220.813 182.124L219.494 180.039L218.825 178.992L218.565 178.592C218.395 178.919 218.226 179.247 218.056 179.574C217.512 180.627 216.967 181.68 216.392 182.719L215.393 184.875L214.324 186.987C213.726 188.104 213.137 189.224 212.549 190.343C211.747 191.87 210.945 193.395 210.119 194.911C209.937 194.912 209.755 194.912 209.573 194.912L209.867 195.373C209.952 195.219 210.036 195.065 210.119 194.911C211.544 194.911 212.974 194.903 214.404 194.832C215.13 194.796 215.854 194.792 216.577 194.789C217.461 194.784 218.344 194.78 219.226 194.716C220.2 194.646 221.177 194.632 222.154 194.617C222.786 194.608 223.418 194.599 224.048 194.574C224.851 194.543 225.655 194.492 226.46 194.441C227.092 194.401 227.724 194.361 228.355 194.331ZM228.355 194.331L228.63 194.761L228.871 194.308C228.699 194.315 228.527 194.322 228.355 194.331Z" fill="#565B5F"/>
<path d="M241.5 235C254.479 235 265 224.479 265 211.5C265 198.521 254.479 188 241.5 188C228.521 188 218 198.521 218 211.5C218 224.479 228.521 235 241.5 235Z" fill="#565B5F" stroke="#565B5F" stroke-width="2" stroke-linecap="round" stroke-linejoin="round"/>
<path d="M246.77 219.918L242.48 216.765C242.072 216.468 241.508 216.468 241.1 216.765L236.77 219.918C236.454 220.162 236.024 220.217 235.652 220.062C235.281 219.907 235.03 219.568 235 219.18V205.706C235.039 204.916 235.405 204.174 236.017 203.643C236.628 203.112 237.436 202.837 238.26 202.879H245.26C246.089 202.843 246.899 203.127 247.508 203.667C248.117 204.207 248.474 204.959 248.5 205.754V219.18C248.461 219.554 248.216 219.878 247.859 220.031C247.501 220.183 247.085 220.14 246.77 219.918Z" fill="#AFB2B6" fill-opacity="0.7"/>
</svg>
