<svg width="215" height="45" viewBox="0 0 215 45" fill="none" xmlns="http://www.w3.org/2000/svg">
<g filter="url(#filter0_d_1753_2388)">
<path d="M23.52 9.24L18.36 16.12C18.12 16.4933 17.8133 16.8533 17.44 17.2C17.0667 17.5467 16.76 17.8 16.52 17.96V18.12C16.76 18.2533 17.0667 18.5333 17.44 18.96C17.8133 19.3867 18.12 19.8133 18.36 20.24L24.2 29H17.6L10.84 17.88L16.92 9.24H23.52ZM10.32 0.999998L10.36 12.56C10.36 13.4933 10.3067 14.4 10.2 15.28C10.0933 16.16 9.93333 17.0267 9.72 17.88C9.90667 18.7067 10.0533 19.56 10.16 20.44C10.2667 21.2933 10.32 22.0933 10.32 22.84V29H4.4V0.999998H10.32ZM13.08 16.2V19.8H8.48V16.2H13.08ZM32.7838 9.24V29H26.9038V9.24H32.7838ZM31.1438 0.52C32.3171 0.52 32.9038 1.12 32.9038 2.32V4.44C32.9038 5.64 32.3171 6.24 31.1438 6.24H28.5838C27.4104 6.24 26.8238 5.64 26.8238 4.44V2.32C26.8238 1.12 27.4104 0.52 28.5838 0.52H31.1438ZM51.5584 8.72C55.2918 8.72 57.1584 10.5467 57.1584 14.2V29H51.2384V16.04C51.2384 15.16 51.0784 14.56 50.7584 14.24C50.4384 13.8933 49.8918 13.72 49.1184 13.72C48.2651 13.72 47.3851 13.8933 46.4784 14.24C45.5718 14.56 44.4518 15.0667 43.1184 15.76L42.8384 12.44C44.2518 11.24 45.6918 10.32 47.1584 9.68C48.6518 9.04 50.1184 8.72 51.5584 8.72ZM42.5584 9.24L43.2384 13.16L43.7184 13.68V29H37.7984V9.24H42.5584ZM71.2219 8.72C73.7019 8.72 75.6885 9.06667 77.1819 9.76C78.6752 10.4267 79.7419 11.52 80.3819 13.04C81.0485 14.56 81.3819 16.6 81.3819 19.16C81.3819 21.6667 81.0485 23.68 80.3819 25.2C79.7419 26.72 78.6752 27.8133 77.1819 28.48C75.6885 29.1467 73.7019 29.48 71.2219 29.48C68.7685 29.48 66.7819 29.1467 65.2619 28.48C63.7685 27.8133 62.6885 26.72 62.0219 25.2C61.3552 23.68 61.0219 21.6667 61.0219 19.16C61.0219 16.6 61.3552 14.56 62.0219 13.04C62.6885 11.52 63.7685 10.4267 65.2619 9.76C66.7819 9.06667 68.7685 8.72 71.2219 8.72ZM71.2219 13.04C70.2085 13.04 69.4085 13.2133 68.8219 13.56C68.2352 13.9067 67.8219 14.52 67.5819 15.4C67.3419 16.28 67.2219 17.5333 67.2219 19.16C67.2219 20.76 67.3419 22 67.5819 22.88C67.8219 23.76 68.2352 24.3733 68.8219 24.72C69.4085 25.04 70.2085 25.2 71.2219 25.2C72.2352 25.2 73.0352 25.04 73.6219 24.72C74.2085 24.3733 74.6219 23.76 74.8619 22.88C75.1019 22 75.2219 20.76 75.2219 19.16C75.2219 17.5333 75.1019 16.28 74.8619 15.4C74.6219 14.52 74.2085 13.9067 73.6219 13.56C73.0352 13.2133 72.2352 13.04 71.2219 13.04Z" fill="#7B61FF"/>
<path d="M94.2156 8.72C96.509 8.72 98.3223 8.93333 99.6556 9.36C101.016 9.78667 101.989 10.4533 102.576 11.36C103.189 12.2667 103.496 13.48 103.496 15C103.496 16.4667 103.202 17.6667 102.616 18.6C102.029 19.5067 101.042 20.1733 99.6556 20.6C98.2956 21.0267 96.469 21.24 94.1756 21.24C91.8823 21.24 90.0423 21.0267 88.6556 20.6C87.2956 20.1733 86.309 19.5067 85.6956 18.6C85.109 17.6933 84.8156 16.4933 84.8156 15C84.8156 13.5067 85.109 12.3067 85.6956 11.4C86.309 10.4667 87.309 9.78667 88.6956 9.36C90.0823 8.93333 91.9223 8.72 94.2156 8.72ZM94.1756 12.36C92.709 12.36 91.6956 12.56 91.1356 12.96C90.5756 13.3333 90.2956 14.0133 90.2956 15C90.2956 15.9867 90.5756 16.68 91.1356 17.08C91.6956 17.48 92.709 17.68 94.1756 17.68C95.6423 17.68 96.6423 17.48 97.1756 17.08C97.709 16.68 97.9756 15.9867 97.9756 15C97.9756 14.0133 97.709 13.3333 97.1756 12.96C96.6423 12.56 95.6423 12.36 94.1756 12.36ZM105.776 9.24L105.456 11.76L100.176 12.44L98.7356 9.24H105.776ZM88.2156 20.04L91.1756 20.56C90.8023 20.7733 90.5356 21.1067 90.3756 21.56C90.2423 22.0133 90.2823 22.44 90.4956 22.84C90.709 23.24 91.1756 23.48 91.8956 23.56L99.1756 24.4C101.256 24.6133 102.722 25.2 103.576 26.16C104.429 27.0933 104.856 28.4667 104.856 30.28C104.856 31.9867 104.509 33.2933 103.816 34.2C103.122 35.1333 102.016 35.7733 100.496 36.12C98.9756 36.4667 96.949 36.64 94.4156 36.64C92.3356 36.64 90.6156 36.5333 89.2556 36.32C87.9223 36.1333 86.8556 35.8133 86.0556 35.36C85.2823 34.9067 84.7356 34.3067 84.4156 33.56C84.1223 32.84 83.9756 31.9333 83.9756 30.84C83.9756 30.0133 84.1223 29.3067 84.4156 28.72C84.709 28.1067 85.2023 27.56 85.8956 27.08C86.6156 26.6 87.6156 26.16 88.8956 25.76L91.8156 24.72L93.9356 25.56L92.3356 26.6C91.669 27.08 91.1223 27.4933 90.6956 27.84C90.2956 28.16 90.0023 28.48 89.8156 28.8C89.6556 29.12 89.5756 29.5467 89.5756 30.08C89.5756 30.6933 89.709 31.16 89.9756 31.48C90.2423 31.8267 90.7223 32.0533 91.4156 32.16C92.1356 32.2933 93.109 32.36 94.3356 32.36C95.6156 32.36 96.6156 32.2933 97.3356 32.16C98.0556 32.0533 98.549 31.84 98.8156 31.52C99.109 31.2 99.2556 30.7467 99.2556 30.16C99.2556 29.6533 99.149 29.28 98.9356 29.04C98.749 28.8 98.4156 28.6267 97.9356 28.52C97.4823 28.3867 96.8423 28.2667 96.0156 28.16L89.8156 27.48C88.7756 27.3733 87.9623 27.0933 87.3756 26.64C86.789 26.1867 86.3756 25.64 86.1356 25C85.9223 24.3333 85.869 23.6667 85.9756 23C86.0823 22.3333 86.3223 21.7333 86.6956 21.2C87.0956 20.6667 87.6023 20.28 88.2156 20.04ZM117.823 8.72C120.303 8.72 122.29 9.06667 123.783 9.76C125.277 10.4267 126.343 11.52 126.983 13.04C127.65 14.56 127.983 16.6 127.983 19.16C127.983 21.6667 127.65 23.68 126.983 25.2C126.343 26.72 125.277 27.8133 123.783 28.48C122.29 29.1467 120.303 29.48 117.823 29.48C115.37 29.48 113.383 29.1467 111.863 28.48C110.37 27.8133 109.29 26.72 108.623 25.2C107.957 23.68 107.623 21.6667 107.623 19.16C107.623 16.6 107.957 14.56 108.623 13.04C109.29 11.52 110.37 10.4267 111.863 9.76C113.383 9.06667 115.37 8.72 117.823 8.72ZM117.823 13.04C116.81 13.04 116.01 13.2133 115.423 13.56C114.837 13.9067 114.423 14.52 114.183 15.4C113.943 16.28 113.823 17.5333 113.823 19.16C113.823 20.76 113.943 22 114.183 22.88C114.423 23.76 114.837 24.3733 115.423 24.72C116.01 25.04 116.81 25.2 117.823 25.2C118.837 25.2 119.637 25.04 120.223 24.72C120.81 24.3733 121.223 23.76 121.463 22.88C121.703 22 121.823 20.76 121.823 19.16C121.823 17.5333 121.703 16.28 121.463 15.4C121.223 14.52 120.81 13.9067 120.223 13.56C119.637 13.2133 118.837 13.04 117.823 13.04ZM141.417 8.72C143.897 8.72 145.884 9.06667 147.377 9.76C148.871 10.4267 149.937 11.52 150.577 13.04C151.244 14.56 151.577 16.6 151.577 19.16C151.577 21.6667 151.244 23.68 150.577 25.2C149.937 26.72 148.871 27.8133 147.377 28.48C145.884 29.1467 143.897 29.48 141.417 29.48C138.964 29.48 136.977 29.1467 135.457 28.48C133.964 27.8133 132.884 26.72 132.217 25.2C131.551 23.68 131.217 21.6667 131.217 19.16C131.217 16.6 131.551 14.56 132.217 13.04C132.884 11.52 133.964 10.4267 135.457 9.76C136.977 9.06667 138.964 8.72 141.417 8.72ZM141.417 13.04C140.404 13.04 139.604 13.2133 139.017 13.56C138.431 13.9067 138.017 14.52 137.777 15.4C137.537 16.28 137.417 17.5333 137.417 19.16C137.417 20.76 137.537 22 137.777 22.88C138.017 23.76 138.431 24.3733 139.017 24.72C139.604 25.04 140.404 25.2 141.417 25.2C142.431 25.2 143.231 25.04 143.817 24.72C144.404 24.3733 144.817 23.76 145.057 22.88C145.297 22 145.417 20.76 145.417 19.16C145.417 17.5333 145.297 16.28 145.057 15.4C144.817 14.52 144.404 13.9067 143.817 13.56C143.231 13.2133 142.431 13.04 141.417 13.04ZM164.411 8.72C166.704 8.72 168.518 8.93333 169.851 9.36C171.211 9.78667 172.184 10.4533 172.771 11.36C173.384 12.2667 173.691 13.48 173.691 15C173.691 16.4667 173.398 17.6667 172.811 18.6C172.224 19.5067 171.238 20.1733 169.851 20.6C168.491 21.0267 166.664 21.24 164.371 21.24C162.078 21.24 160.238 21.0267 158.851 20.6C157.491 20.1733 156.504 19.5067 155.891 18.6C155.304 17.6933 155.011 16.4933 155.011 15C155.011 13.5067 155.304 12.3067 155.891 11.4C156.504 10.4667 157.504 9.78667 158.891 9.36C160.278 8.93333 162.118 8.72 164.411 8.72ZM164.371 12.36C162.904 12.36 161.891 12.56 161.331 12.96C160.771 13.3333 160.491 14.0133 160.491 15C160.491 15.9867 160.771 16.68 161.331 17.08C161.891 17.48 162.904 17.68 164.371 17.68C165.838 17.68 166.838 17.48 167.371 17.08C167.904 16.68 168.171 15.9867 168.171 15C168.171 14.0133 167.904 13.3333 167.371 12.96C166.838 12.56 165.838 12.36 164.371 12.36ZM175.971 9.24L175.651 11.76L170.371 12.44L168.931 9.24H175.971ZM158.411 20.04L161.371 20.56C160.998 20.7733 160.731 21.1067 160.571 21.56C160.438 22.0133 160.478 22.44 160.691 22.84C160.904 23.24 161.371 23.48 162.091 23.56L169.371 24.4C171.451 24.6133 172.918 25.2 173.771 26.16C174.624 27.0933 175.051 28.4667 175.051 30.28C175.051 31.9867 174.704 33.2933 174.011 34.2C173.318 35.1333 172.211 35.7733 170.691 36.12C169.171 36.4667 167.144 36.64 164.611 36.64C162.531 36.64 160.811 36.5333 159.451 36.32C158.118 36.1333 157.051 35.8133 156.251 35.36C155.478 34.9067 154.931 34.3067 154.611 33.56C154.318 32.84 154.171 31.9333 154.171 30.84C154.171 30.0133 154.318 29.3067 154.611 28.72C154.904 28.1067 155.398 27.56 156.091 27.08C156.811 26.6 157.811 26.16 159.091 25.76L162.011 24.72L164.131 25.56L162.531 26.6C161.864 27.08 161.318 27.4933 160.891 27.84C160.491 28.16 160.198 28.48 160.011 28.8C159.851 29.12 159.771 29.5467 159.771 30.08C159.771 30.6933 159.904 31.16 160.171 31.48C160.438 31.8267 160.918 32.0533 161.611 32.16C162.331 32.2933 163.304 32.36 164.531 32.36C165.811 32.36 166.811 32.2933 167.531 32.16C168.251 32.0533 168.744 31.84 169.011 31.52C169.304 31.2 169.451 30.7467 169.451 30.16C169.451 29.6533 169.344 29.28 169.131 29.04C168.944 28.8 168.611 28.6267 168.131 28.52C167.678 28.3867 167.038 28.2667 166.211 28.16L160.011 27.48C158.971 27.3733 158.158 27.0933 157.571 26.64C156.984 26.1867 156.571 25.64 156.331 25C156.118 24.3333 156.064 23.6667 156.171 23C156.278 22.3333 156.518 21.7333 156.891 21.2C157.291 20.6667 157.798 20.28 158.411 20.04ZM184.813 0.999998L184.773 22.68C184.773 23.3467 184.973 23.8533 185.373 24.2C185.773 24.52 186.36 24.68 187.133 24.68H188.733L189.413 28.68C189.093 28.84 188.64 28.9733 188.053 29.08C187.466 29.2133 186.866 29.3067 186.253 29.36C185.64 29.44 185.12 29.48 184.693 29.48C182.906 29.48 181.493 29.0133 180.453 28.08C179.413 27.1467 178.893 25.84 178.893 24.16V0.999998H184.813ZM201.338 8.72C204.671 8.72 207.058 9.29333 208.498 10.44C209.965 11.56 210.698 13.24 210.698 15.48C210.725 17.2933 210.271 18.6533 209.338 19.56C208.405 20.44 206.791 20.88 204.498 20.88H193.458V17.56H202.858C203.765 17.56 204.338 17.3733 204.578 17C204.845 16.6 204.978 16.0533 204.978 15.36C204.951 14.4267 204.671 13.7867 204.138 13.44C203.631 13.0667 202.765 12.88 201.538 12.88C200.445 12.88 199.591 13.0267 198.978 13.32C198.365 13.6133 197.938 14.1733 197.698 15C197.458 15.8267 197.338 17.0267 197.338 18.6C197.338 20.2533 197.485 21.5333 197.778 22.44C198.071 23.32 198.565 23.9333 199.258 24.28C199.978 24.6267 200.965 24.8 202.218 24.8C203.125 24.8 204.245 24.7733 205.578 24.72C206.938 24.64 208.298 24.52 209.658 24.36L210.218 28C209.445 28.3733 208.565 28.6667 207.578 28.88C206.591 29.0933 205.578 29.24 204.538 29.32C203.498 29.4267 202.498 29.48 201.538 29.48C199.031 29.48 197.005 29.12 195.458 28.4C193.938 27.6533 192.831 26.52 192.138 25C191.471 23.48 191.138 21.5333 191.138 19.16C191.138 16.5733 191.485 14.52 192.178 13C192.871 11.48 193.965 10.3867 195.458 9.72C196.951 9.05333 198.911 8.72 201.338 8.72Z" fill="white"/>
</g>
<defs>
<filter id="filter0_d_1753_2388" x="0.400391" y="0.52002" width="214.338" height="44.1201" filterUnits="userSpaceOnUse" color-interpolation-filters="sRGB">
<feFlood flood-opacity="0" result="BackgroundImageFix"/>
<feColorMatrix in="SourceAlpha" type="matrix" values="0 0 0 0 0 0 0 0 0 0 0 0 0 0 0 0 0 0 127 0" result="hardAlpha"/>
<feOffset dy="4"/>
<feGaussianBlur stdDeviation="2"/>
<feComposite in2="hardAlpha" operator="out"/>
<feColorMatrix type="matrix" values="0 0 0 0 0 0 0 0 0 0 0 0 0 0 0 0 0 0 0.25 0"/>
<feBlend mode="normal" in2="BackgroundImageFix" result="effect1_dropShadow_1753_2388"/>
<feBlend mode="normal" in="SourceGraphic" in2="effect1_dropShadow_1753_2388" result="shape"/>
</filter>
</defs>
</svg>
